<?xml version="1.0" encoding="UTF-8"?>
<svg width="24px" height="24px" viewBox="0 0 24 24" version="1.1" xmlns="http://www.w3.org/2000/svg" xmlns:xlink="http://www.w3.org/1999/xlink">
    <g id="页面-2" stroke="none" stroke-width="1" fill="none" fill-rule="evenodd">
        <g id="首页切片" transform="translate(-629.000000, -5145.000000)">
            <g id="编组-7" transform="translate(629.000000, 5145.001000)">
                <rect id="矩形备份-7" fill="#192A51" x="0" y="0" width="24" height="24" rx="2"></rect>
                <path d="M14.2189825,11.9976917 C14.2189825,11.3844191 14.0020855,10.8608859 13.5682916,10.4270919 C13.1344976,9.9932979 12.6109643,9.77640091 11.9976917,9.77640091 C11.3844191,9.77640091 10.8608859,9.9932979 10.4270919,10.4270919 C9.9932979,10.8608859 9.77640091,11.3844191 9.77640091,11.9976917 C9.77640091,12.6109643 9.9932979,13.1344976 10.4270919,13.5682916 C10.8608859,14.0020855 11.3844191,14.2189825 11.9976917,14.2189825 C12.6109643,14.2189825 13.1344976,14.0020855 13.5682916,13.5682916 C14.0020855,13.1344976 14.2189825,12.6109643 14.2189825,11.9976917 Z M15.4163705,11.9976917 C15.4163705,12.9465958 15.0836548,13.7536016 14.4182232,14.4187092 C13.7527917,15.0838168 12.9457859,15.4165325 11.9972058,15.4168567 C11.0486257,15.4171805 10.2416198,15.0844647 9.57618831,14.4187092 C8.91075677,13.7529537 8.578041,12.9459479 8.578041,11.9976917 C8.578041,11.0494356 8.91075677,10.2424298 9.57618831,9.57667426 C10.2416198,8.91091875 11.0486257,8.57820299 11.9972058,8.57852672 C12.9457859,8.57885092 13.7527917,8.91156669 14.4182232,9.57667426 C15.0836548,10.2417818 15.4163705,11.0487876 15.4163705,11.9976917 Z M16.3537737,8.44003037 C16.3537737,8.66000506 16.2756973,8.84806884 16.1195444,9.00422172 C15.9633915,9.16037459 15.7753278,9.23845103 15.5553531,9.23845103 C15.3353784,9.23845103 15.1473146,9.16037459 14.9911617,9.00422172 C14.8350089,8.84806884 14.7569324,8.66000506 14.7569324,8.44003037 C14.7569324,8.22005568 14.8350089,8.0319919 14.9911617,7.87583903 C15.1473146,7.71968616 15.3353784,7.64160972 15.5553531,7.64160972 C15.7753278,7.64160972 15.9633915,7.71968616 16.1195444,7.87583903 C16.2756973,8.0319919 16.3537737,8.22005568 16.3537737,8.44003037 Z M11.9972058,6.53072134 C11.9567097,6.53072134 11.7354391,6.52926348 11.3333941,6.52634776 C10.931349,6.52343204 10.6261706,6.52343204 10.4178588,6.52634776 C10.209547,6.52926348 9.93044799,6.53801063 9.58056188,6.55258922 C9.23067578,6.56716781 8.93278664,6.596163 8.68689446,6.63957479 C8.44100228,6.68298659 8.23414832,6.73644141 8.06633257,6.79993926 C7.7770286,6.91559605 7.52255125,7.08341179 7.30290053,7.30338648 C7.08324981,7.52336117 6.91543407,7.77783852 6.7994533,8.06681853 C6.73595545,8.23463427 6.68250063,8.44148823 6.63908884,8.68738041 C6.59567704,8.93327259 6.56668185,9.23116173 6.55210326,9.58104784 C6.53752468,9.93093394 6.52877752,10.2100329 6.52586181,10.4183447 C6.52294609,10.6266565 6.52294609,10.931835 6.52586181,11.33388 C6.52877752,11.7359251 6.53023538,11.9571956 6.53023538,11.9976917 C6.53023538,12.0381878 6.52877752,12.2594584 6.52586181,12.6615034 C6.52294609,13.0635485 6.52294609,13.3687269 6.52586181,13.5770387 C6.52877752,13.7853505 6.53752468,14.0644495 6.55210326,14.4143356 C6.56668185,14.7642217 6.59567704,15.0621109 6.63908884,15.308003 C6.68250063,15.5538952 6.73595545,15.7607492 6.7994533,15.9285649 C6.9151101,16.2178689 7.08292584,16.4723462 7.30290053,16.691997 C7.52287522,16.9116477 7.77735257,17.0794634 8.06633257,17.1954442 C8.23414832,17.258942 8.44100228,17.3123969 8.68689446,17.3558087 C8.93278664,17.3992205 9.23067578,17.4282156 9.58056188,17.4427942 C9.93044799,17.4573728 10.209547,17.46612 10.4178588,17.4690357 C10.6261706,17.4719514 10.931349,17.4719514 11.3333941,17.4690357 C11.7354391,17.46612 11.9567097,17.4646621 11.9972058,17.4646621 C12.0377018,17.4646621 12.2589724,17.46612 12.6610175,17.4690357 C13.0630625,17.4719514 13.368241,17.4719514 13.5765528,17.4690357 C13.7848646,17.46612 14.0639636,17.4573728 14.4138497,17.4427942 C14.7637358,17.4282156 15.0616249,17.3992205 15.3075171,17.3558087 C15.5534093,17.3123969 15.7602632,17.258942 15.928079,17.1954442 C16.2173829,17.0797874 16.4718603,16.9119717 16.691511,16.691997 C16.9111617,16.4720223 17.0789775,16.2175449 17.1949582,15.9285649 C17.2584561,15.7607492 17.3119109,15.5538952 17.3553227,15.308003 C17.3987345,15.0621109 17.4277297,14.7642217 17.4423083,14.4143356 C17.4568869,14.0644495 17.465634,13.7853505 17.4685497,13.5770387 C17.4714655,13.3687269 17.4714655,13.0635485 17.4685497,12.6615034 C17.465634,12.2594584 17.4641762,12.0381878 17.4641762,11.9976917 C17.4641762,11.9571956 17.465634,11.7359251 17.4685497,11.33388 C17.4714655,10.931835 17.4714655,10.6266565 17.4685497,10.4183447 C17.465634,10.2100329 17.4568869,9.93093394 17.4423083,9.58104784 C17.4277297,9.23116173 17.3987345,8.93327259 17.3553227,8.68738041 C17.3119109,8.44148823 17.2584561,8.23463427 17.1949582,8.06681853 C17.0793014,7.77751455 16.9114857,7.52303721 16.691511,7.30338648 C16.4715363,7.08373576 16.217059,6.91592002 15.928079,6.79993926 C15.7602632,6.73644141 15.5534093,6.68298659 15.3075171,6.63957479 C15.0616249,6.596163 14.7637358,6.56716781 14.4138497,6.55258922 C14.0639636,6.53801063 13.7848646,6.52926348 13.5765528,6.52634776 C13.368241,6.52343204 13.0630625,6.52343204 12.6610175,6.52634776 C12.2589724,6.52926348 12.0377018,6.53072134 11.9972058,6.53072134 Z M18.6620501,11.9976917 C18.6620501,13.3223994 18.6476335,14.2393926 18.6188003,14.7486712 C18.5608099,15.9518907 18.2021767,16.8833004 17.5429005,17.5429005 C16.8836244,18.2025006 15.9522146,18.5611339 14.7486712,18.6188003 C14.2397165,18.6476335 13.3227234,18.6620501 11.9976917,18.6620501 C10.6726601,18.6620501 9.75566692,18.6476335 9.24671222,18.6188003 C8.04349279,18.5608099 7.11208302,18.2021767 6.45248292,17.5429005 C5.79288281,16.8836244 5.43424956,15.9522146 5.37658314,14.7486712 C5.34774994,14.2397165 5.33333333,13.3227234 5.33333333,11.9976917 C5.33333333,10.6726601 5.34774994,9.75566692 5.37658314,9.24671222 C5.43457353,8.04349279 5.79320678,7.11208302 6.45248292,6.45248292 C7.11175905,5.79288281 8.04316882,5.43424956 9.24671222,5.37658314 C9.75566692,5.34774994 10.6726601,5.33333333 11.9976917,5.33333333 C13.3227234,5.33333333 14.2397165,5.34774994 14.7486712,5.37658314 C15.9518907,5.43457353 16.8833004,5.79320678 17.5429005,6.45248292 C18.2025006,7.11175905 18.5611339,8.04316882 18.6188003,9.24671222 C18.6476335,9.75566692 18.6620501,10.6726601 18.6620501,11.9976917 Z" id="Shape" fill="#2AFEFE" fill-rule="nonzero" opacity="0.600000024"></path>
            </g>
        </g>
    </g>
</svg>