<?xml version="1.0" encoding="UTF-8"?>
<svg width="24px" height="24px" viewBox="0 0 24 24" version="1.1" xmlns="http://www.w3.org/2000/svg" xmlns:xlink="http://www.w3.org/1999/xlink">
    <g id="页面-2" stroke="none" stroke-width="1" fill="none" fill-rule="evenodd">
        <g id="首页切片" transform="translate(-930.000000, -5191.000000)">
            <g id="编组-14备份-2" transform="translate(930.000000, 5191.000000)">
                <rect id="矩形备份-6" fill="rgba(214, 135, 45, 0.1)" x="0" y="0" width="24" height="24" rx="2"></rect>
                <g id="Group-31-Copy" transform="translate(5.333333, 6.666667)" fill="#FEC944">
                    <path d="M0.287276782,0.0487598945 C0.356026782,0.0487598945 0.464062496,0.0835883882 0.611383923,0.153245376 L4.37544642,1.93646438 C4.39017857,1.95039578 4.39754464,1.96200528 4.39754464,1.97129288 L4.39754464,10.1420581 C4.39754464,10.258153 4.36685268,10.3568338 4.30546875,10.4381003 C4.24408482,10.5193668 4.15446429,10.56 4.03660714,10.56 C3.953125,10.56 3.87209821,10.5414248 3.79352678,10.5042744 L0.368303577,8.88126649 C0.265178577,8.83482849 0.178013395,8.75704485 0.106808032,8.64791556 C0.0356026687,8.53878628 0,8.43081795 0,8.32401056 L0,0.383113451 C0,0.290237465 0.0245535727,0.211292876 0.073660718,0.146279683 C0.122767863,0.0812664908 0.193973218,0.0487598945 0.287276782,0.0487598945 Z M13.2,2.80021109 L13.2,10.1420581 C13.2,10.258153 13.165625,10.35219 13.096875,10.4241689 C13.028125,10.4961478 12.9348214,10.5321372 12.8169643,10.5321372 C12.6991071,10.5321372 12.5837054,10.5019525 12.4707589,10.4415831 L9.22232142,8.90912929 L13.2,2.80021109 Z M4.86897322,2.67482849 L8.80245536,8.70712401 L4.86897322,6.85424802 L4.86897322,2.67482849 Z M8.971875,0 C9.040625,0 9.10446429,0.0139313967 9.16339286,0.04179419 L13.1484375,1.92253299 C13.1680804,1.93182058 13.1779018,1.94575198 13.1779018,1.96432718 C13.1779018,1.97825858 12.5481027,2.95229552 11.2885045,4.886438 C10.0289063,6.82058048 9.29107144,7.9525066 9.075,8.28221636 L6.20223214,3.86596306 L8.58883928,0.195039578 C8.67232143,0.0650131926 8.8,0 8.971875,0 Z" id="medium"></path>
                </g>
            </g>
        </g>
    </g>
</svg>