<?xml version="1.0" encoding="UTF-8"?>
<svg width="24px" height="24px" viewBox="0 0 24 24" version="1.1" xmlns="http://www.w3.org/2000/svg" xmlns:xlink="http://www.w3.org/1999/xlink">
    <title>编组 4</title>
    <g id="页面-2" stroke="none" stroke-width="1" fill="none" fill-rule="evenodd">
        <g id="首页切片" transform="translate(-461.000000, -5191.000000)">
            <g id="编组-4" transform="translate(461.000000, 5191.000000)">
                <g id="编组-18备份-2" fill="#394A3C">
                    <rect id="矩形" x="0" y="0" width="24" height="24" rx="2"></rect>
                </g>
                <path d="M12,4 C7.58159375,4 4,7.58159375 4,12 C4,16.4184063 7.58159375,20 12,20 C16.4184063,20 20,16.4184063 20,12 C20,7.58159375 16.4184063,4 12,4 Z M18.8000031,11.7475937 L16.174,11.7475937 C16.1464,10.6299937 15.9476,9.962 15.5948,8.98479687 C16.2752,8.70039687 16.632,8.38599687 17.2060031,7.94199687 C18.2260031,9.08119687 18.7400031,10.1099969 18.8000031,11.7475937 L18.8000031,11.7475937 Z M11.7212031,18.7983906 C10.8824031,18.0999906 10.5788031,17.1931875 10.064,16.1399844 C10.7244,15.9335844 11.0248,15.8207844 11.7475937,15.7975844 L11.7475937,18.7999906 C11.7387937,18.7995906 11.7299937,18.7991906 11.7211937,18.7983906 L11.7212031,18.7983906 Z M12.2784031,5.20159375 C13.2300031,5.99399375 14.0068094,7.0551875 14.5319969,8.2931875 C13.8131969,8.5391875 13.4479969,8.6815875 12.6519969,8.7071875 L12.2519969,5.20039062 C12.2611969,5.20039062 12.2695969,5.20079062 12.2783969,5.20159062 L12.2784031,5.20159375 Z M13.1188031,5.28719375 C14.5116031,5.51879375 15.8896,6.24279375 16.8608031,7.17919375 C16.3332031,7.58199375 16.0284031,7.85959375 15.4048031,8.11919375 C14.9452031,7.03079375 13.9008031,6.06839687 13.1188031,5.28719375 Z M11.7476031,5.19999375 L11.7476031,8.70679062 C10.9516031,8.68119062 10.5868031,8.53879062 9.86800937,8.29279062 C10.3932094,7.05479062 10.7700094,5.99399375 11.7216031,5.20119687 C11.7304031,5.20079687 11.7388031,5.20039687 11.7476031,5.19999375 L11.7476031,5.19999375 Z M8.99519687,8.11919687 C8.37199688,7.85959687 7.93079688,7.58199687 7.40319688,7.17919687 C8.37439688,6.24279687 9.4884,5.51879062 10.8811969,5.28719687 C10.0991969,6.06839687 9.45519687,7.03079062 8.99519687,8.11919687 Z M9.67759687,9.15839375 C10.4559969,9.42839687 10.8843969,9.58559688 11.7475969,9.61159688 L11.7475969,11.7475969 L9.13039375,11.7475969 C9.15799375,10.6911969 9.34479375,10.0811906 9.67759375,9.15839375 L9.67759687,9.15839375 Z M11.7476031,12.6523969 L11.7476031,14.8928031 C10.9515969,14.9168031 10.5823969,15.0472031 9.8568,15.2808031 C9.4196,14.2404031 9.162,13.8808031 9.1304,12.6523969 L11.7476031,12.6523969 L11.7476031,12.6523969 Z M10.8812125,18.7128031 C9.63359687,18.5052031 8.49999375,17.9620031 7.5784,17.1728031 C8.0756,16.8284031 8.6128,16.5364031 9.18680625,16.3148031 C9.62720625,17.2276031 10.2032063,18.0372094 10.8812125,18.7128031 L10.8812125,18.7128031 Z M12.2523875,18.8000031 L12.6523969,15.7975969 C13.3751969,15.8207969 13.6755969,15.9335969 14.3359906,16.1399969 C13.8211906,17.1931969 13.1175906,18.0999969 12.2787875,18.7984031 C12.2699875,18.7992031 12.2611875,18.7996031 12.2523875,18.8000031 L12.2523875,18.8000031 Z M15.2128031,16.3148 C15.7868031,16.5364 15.9240031,16.8284 16.4216031,17.1728 C15.5000031,17.962 14.3664,18.5052 13.1188063,18.7128 C13.7968063,18.0372 14.7728063,17.2276 15.2128062,16.3148 L15.2128031,16.3148 Z M14.5432031,15.2808 C13.8176031,15.0472 13.4484031,14.9168 12.6524063,14.8928 L12.6524063,12.6523937 L15.2692031,12.6523937 C15.2376031,13.8807937 14.9800031,14.2403937 14.5432031,15.2808 Z M12.6524063,11.7476 L12.6524063,9.61159687 C13.5152063,9.58559687 13.9444063,9.42839687 14.7224063,9.15839687 C15.0552063,10.0811969 15.2424063,10.6911969 15.2692063,11.7476 L12.6524063,11.7476 L12.6524063,11.7476 Z M7.058,7.94200312 C7.632,8.38600312 8.1248,8.70040312 8.80520313,8.98480312 C8.45240313,9.96200312 8.25360313,10.6300062 8.22600313,11.7476 L5.20000313,11.7476 C5.26000313,10.1100062 6.03760313,9.08119375 7.05800313,7.94200312 L7.058,7.94200312 Z M5.2,12.6524031 L8.226,12.6524031 C8.2576,13.9416094 8.5264,14.3592062 8.9844,15.4540031 C8.3452,15.7032031 7.7488,16.0356031 7.19880625,16.4284031 C6.01360625,15.2492031 5.26600938,14.4368094 5.2,12.6524031 L5.2,12.6524031 Z M16.8012031,16.4284156 C16.2512031,16.0356094 16.0552031,15.7032094 15.4156031,15.4540094 C15.8736031,14.3592094 16.1424031,13.9416094 16.1740031,12.6524156 L18.8000031,12.6524156 C18.7340031,14.4368219 17.9864031,15.2492125 16.8012062,16.4284156 L16.8012031,16.4284156 Z" id="形状" fill="#86B66B" fill-rule="nonzero"></path>
            </g>
        </g>
    </g>
</svg>