<?xml version="1.0" encoding="UTF-8"?>
<svg width="24px" height="24px" viewBox="0 0 24 24" version="1.1" xmlns="http://www.w3.org/2000/svg" xmlns:xlink="http://www.w3.org/1999/xlink">
    <title>编组 15</title>
    <g id="页面-2" stroke="none" stroke-width="1" fill="none" fill-rule="evenodd">
        <g id="首页切片" transform="translate(-573.000000, -5191.000000)">
            <g id="编组-15" transform="translate(573.000000, 5191.001000)">
                <rect id="矩形备份-5" fill="#394A3C" x="0" y="0" width="24" height="24" rx="2"></rect>
                <path d="M17.0780855,17.026237 L19.2918457,7.0683112 C19.4874893,6.19188868 18.9603117,5.84702145 18.3579608,6.06221859 L5.34717953,10.8471362 C4.45859137,11.1772891 4.47401156,11.6518263 5.19683275,11.8670235 L8.52470144,12.8584017 L16.2502143,8.21694892 C16.6116248,7.98703745 16.9431588,8.11670751 16.6723417,8.34661897 L10.4233118,13.7348243 L10.1823714,17.0115226 C10.5283618,17.0115226 10.6796723,16.8680578 10.8598957,16.6951644 L12.4857615,15.2007399 L15.8589271,17.571587 C16.4766981,17.9017399 16.9132821,17.7297661 17.0790492,17.0253174 L17.0780855,17.026237 Z" id="telegramm-copy" fill="#BBFF8A" fill-rule="nonzero" opacity="0.600000024"></path>
            </g>
        </g>
    </g>
</svg>