<?xml version="1.0" encoding="UTF-8"?>
<svg width="24px" height="24px" viewBox="0 0 24 24" version="1.1" xmlns="http://www.w3.org/2000/svg" xmlns:xlink="http://www.w3.org/1999/xlink">
    <g id="页面-2" stroke="none" stroke-width="1" fill="none" fill-rule="evenodd">
        <g id="首页切片" transform="translate(-846.000000, -5191.000000)">
            <g id="编组-17备份-2" transform="translate(846.000000, 5191.000000)">
                <rect id="矩形备份-5" fill="#B7FA88" x="0" y="0" width="24" height="24" rx="2"></rect>
                <path d="M17.840384,9.30558727 C17.840384,13.2196244 14.8136533,17.7333333 9.27927467,17.7333333 C7.57981867,17.7333333 5.99816533,17.2431547 4.66666667,16.4023205 C4.902272,16.4295783 5.141632,16.4439002 5.38427733,16.4439002 C6.79415467,16.4439002 8.091392,15.9703535 9.12157867,15.1757189 C7.80462933,15.1521571 6.69371733,14.295615 6.31074133,13.1189091 C6.49472,13.1535588 6.68292267,13.1720387 6.87675733,13.1720387 C7.15131733,13.1720387 7.41696,13.1355409 7.66946133,13.0680894 C6.29290667,12.7959733 5.25568,11.5989395 5.25568,10.1635154 C5.25568,10.1510415 5.25568,10.1385675 5.25614933,10.1260936 C5.66165333,10.3478521 6.125824,10.4813692 6.61909333,10.4966151 C5.81184,9.96531874 5.28055467,9.05888097 5.28055467,8.03093804 C5.28055467,7.48809177 5.428864,6.97943327 5.687936,6.54192227 C7.171968,8.33400795 9.38909867,9.51302385 11.890176,9.636839 C11.8390187,9.42016249 11.8122667,9.19378404 11.8122667,8.96186164 C11.8122667,7.32593088 13.1597227,6 14.8211627,6 C15.6866133,6 16.4685227,6.35989553 17.0176427,6.93554357 C17.7028693,6.80295048 18.3467947,6.55624418 18.9282987,6.21667651 C18.703488,6.90828576 18.2266453,7.48901576 17.605248,7.85537924 C18.2139733,7.78376974 18.7940693,7.62438083 19.3333333,7.38922445 C18.930176,7.98335236 18.4200107,8.50494678 17.831936,8.92259191 C17.8370987,9.04964103 17.840384,9.17761415 17.840384,9.30558727 Z" id="twitter-copy" fill="#170C39" fill-rule="nonzero"></path>
            </g>
        </g>
    </g>
</svg>