<?xml version="1.0" encoding="UTF-8"?>
<svg width="24px" height="24px" viewBox="0 0 24 24" version="1.1" xmlns="http://www.w3.org/2000/svg" xmlns:xlink="http://www.w3.org/1999/xlink">
    <title>编组 6</title>
    <g id="页面-2" stroke="none" stroke-width="1" fill="none" fill-rule="evenodd">
        <g id="首页切片" transform="translate(-657.000000, -5145.000000)">
            <g id="编组-6" transform="translate(657.000000, 5145.001000)">
                <rect id="矩形备份-15" fill="#192A51" x="0" y="0" width="24" height="24" rx="2"></rect>
                <path d="M15.1587806,11.8802699 C14.5368355,11.7566545 14.8330035,11.4009921 14.8330035,11.4009921 C14.8330035,11.4009921 15.4401439,10.3491886 14.7144145,9.59123983 C13.8111442,8.64786803 11.6194179,9.7151334 11.6194179,9.7151334 C10.7900945,9.97810415 11.0123156,9.59123983 11.1306381,8.91083878 C11.1306381,8.12200602 10.8641174,6.77658628 8.62797735,7.58092065 C6.40664186,8.36951492 4.49627887,11.1689848 4.49627887,11.1689848 C3.16344713,13.0248047 3.34121639,14.4477325 3.34121639,14.4477325 C3.66695543,17.6183266 6.89538362,18.4844687 9.39804437,18.6855523 C12.0341367,18.9021375 15.5880376,17.7422202 16.6690771,15.3447187 C17.7502308,12.9475352 15.7806875,12.0041634 15.1587806,11.8802699 L15.1587806,11.8802699 Z M9.59069434,17.8039484 C6.96940657,17.927524 4.8518935,16.5512998 4.8518935,14.7260856 C4.8518935,12.9011497 6.96940657,11.4472982 9.59069434,11.3234444 C12.2117538,11.1998688 14.3294571,12.3134402 14.3294571,14.1383762 C14.3294571,15.9636301 12.2117538,17.6800946 9.59069434,17.8039484 L9.59069434,17.8039484 Z" id="Shape" fill="#2AFEFE" fill-rule="nonzero" opacity="0.600000024"></path>
                <path d="M9.6832277,12.6917829 C7.04713534,13.0165613 7.34330326,15.5994063 7.34330326,15.5994063 C7.34330326,15.5994063 7.32849867,16.4034624 8.0542661,16.8211709 C9.59447627,17.6872335 11.1788719,17.1613715 11.9785481,16.0941061 C12.7782243,15.0116969 12.3190536,12.3824663 9.6832277,12.6917829 L9.6832277,12.6917829 Z M9.01667862,16.310731 C8.52820327,16.3725387 8.12821293,16.078684 8.12821293,15.6457918 C8.12821293,15.2126215 8.4837895,14.7642277 8.97230291,14.7178819 C9.53502956,14.655796 9.90541072,14.996235 9.90541072,15.4292066 C9.90541072,15.862377 9.50545844,16.2489234 9.01667862,16.310731 L9.01667862,16.310731 Z M10.5717314,14.9341491 C10.3939241,15.0580427 10.2015786,15.0426206 10.1125608,14.8878033 C10.0090048,14.7332643 10.0533805,14.4857951 10.2163832,14.3619413 C10.4087287,14.2074022 10.6161072,14.2537481 10.705125,14.4085256 C10.7938764,14.5630249 10.7199296,14.7951117 10.5717314,14.9341491 L10.5717314,14.9341491 Z" id="Shape" fill="#2AFEFE" fill-rule="nonzero" opacity="0.600000024"></path>
                <path d="M16.3694956,11.6251144 C16.5766076,11.6251144 16.7544149,11.454875 16.7840241,11.2382898 C16.7840241,11.222828 16.7988287,11.2074059 16.7988287,11.191944 C17.1098012,8.1761274 14.4295615,8.70179067 14.4295615,8.70179067 C14.1925738,8.70179067 14,8.902914 14,9.15046265 C14,9.3979318 14.1926119,9.59909489 14.4295615,9.59909489 C16.3544626,9.15046265 15.9251295,11.1765219 15.9251295,11.1765219 C15.9250915,11.4239911 16.1177034,11.6251144 16.3694956,11.6251144 L16.3694956,11.6251144 Z" id="Shape" fill="#2AFEFE" fill-rule="nonzero" opacity="0.600000024"></path>
                <path d="M16.6802778,6.11095899 C15.7622029,5.87919018 14.7997523,6.07272171 14.5331936,6.13452938 C14.518389,6.13452938 14.4885134,6.14617545 14.4737469,6.14617545 C14.4589423,6.14617545 14.4589423,6.15972942 14.4589423,6.15972942 C14.1923455,6.23727717 14,6.49913499 14,6.7929897 C14,7.14865208 14.2813633,7.44222855 14.621907,7.44222855 C14.621907,7.44222855 14.9624506,7.39560451 15.1994382,7.30263465 C15.4216212,7.20994302 17.3467888,7.24054875 18.3092394,8.91094564 C18.8275903,10.1327103 18.5314224,10.9524668 18.5018132,11.0917824 C18.5018132,11.0917824 18.3684197,11.4011388 18.3684197,11.7259172 C18.3684197,12.0815795 18.649783,12.3285688 19.0053596,12.3285688 C19.286761,12.3285688 19.5385151,12.3431989 19.5976573,11.7867311 L19.6124619,11.7867311 C20.6343973,7.97091265 18.3536531,6.51324542 16.6802778,6.11095899 L16.6802778,6.11095899 Z" id="Shape" fill="#2AFEFE" fill-rule="nonzero" opacity="0.600000024"></path>
            </g>
        </g>
    </g>
</svg>